<?xml version="1.0" encoding="UTF-8" standalone="no"?>
<!DOCTYPE svg PUBLIC "-//W3C//DTD SVG 1.1//EN" "http://www.w3.org/Graphics/SVG/1.1/DTD/svg11.dtd">
<svg xmlns="http://www.w3.org/2000/svg" version="1.1" viewBox="0 0 671 162">
<g stroke-width="2.00" fill="none" stroke-linecap="butt">
<path stroke="#6e9b04" vector-effect="non-scaling-stroke" d="
  M 316.21 50.50
  Q 315.01 49.98 315.46 48.50"
/>
<path stroke="#6e9b04" vector-effect="non-scaling-stroke" d="
  M 314.29 50.50
  Q 314.13 53.37 316.29 52.00"
/>
</g>
<path fill="#6c9904" d="
  M 644.24 70.03
  A 1.22 1.20 83.2 0 0 642.72 68.81
  L 637.49 70.27
  Q 635.38 70.86 635.46 73.16
  Q 635.67 79.30 630.70 78.22
  Q 627.13 77.44 623.93 77.05
  A 1.38 1.38 8.8 0 1 622.74 75.43
  Q 628.01 47.25 629.75 19.00
  Q 630.23 11.23 630.72 8.30
  A 0.53 0.52 8.0 0 1 631.30 7.87
  Q 643.52 9.29 655.42 6.52
  A 0.89 0.89 84.3 0 1 656.51 7.42
  Q 655.91 24.38 656.28 41.00
  Q 656.63 57.13 659.06 73.08
  Q 660.38 81.76 662.75 86.75
  Q 664.33 90.07 661.55 90.82
  Q 659.61 91.34 659.52 91.38
  Q 651.62 94.43 643.80 97.70
  A 0.35 0.35 80.2 0 1 643.32 97.36
  L 644.24 70.03
  Z
  M 637.37 57.34
  A 0.72 0.70 89.4 0 0 638.16 58.13
  L 643.57 57.40
  A 0.64 0.62 87.8 0 0 644.10 56.81
  L 645.01 40.53
  A 1.74 1.70 5.5 0 0 643.51 38.75
  Q 640.37 38.32 639.67 41.84
  Q 638.23 49.21 637.37 57.34
  Z"
/>
<path fill="#6c9904" d="
  M 587.02 28.26
  L 583.42 30.75
  A 0.99 0.90 -27.4 0 1 581.95 30.36
  Q 580.27 25.22 578.88 20.05
  Q 578.86 19.95 578.37 18.61
  Q 577.43 15.99 580.31 14.06
  Q 585.62 10.53 590.67 8.73
  Q 596.32 6.71 602.00 7.73
  Q 614.96 10.06 620.00 23.75
  Q 623.59 33.51 621.77 43.31
  Q 618.61 60.32 605.05 71.76
  A 1.45 1.44 -49.0 0 0 605.21 74.08
  Q 614.50 79.97 625.29 82.33
  Q 631.96 83.79 638.94 82.98
  A 0.63 0.63 -89.6 0 1 639.64 83.69
  L 637.52 98.93
  A 0.65 0.64 -87.6 0 1 636.94 99.48
  Q 632.08 99.82 627.32 98.67
  Q 612.09 94.98 600.18 84.80
  Q 599.75 84.44 599.75 84.99
  L 599.83 94.93
  Q 599.84 96.75 598.02 97.32
  L 590.23 99.76
  A 1.16 1.12 -10.1 0 1 588.73 98.75
  Q 587.36 65.39 588.31 29.09
  Q 588.36 27.32 587.02 28.26
  Z
  M 601.84 25.57
  Q 599.97 43.05 600.25 59.27
  Q 600.26 59.71 600.59 59.42
  Q 607.95 53.08 610.46 44.07
  Q 612.15 38.04 610.50 33.44
  Q 608.49 27.83 602.57 25.14
  A 0.52 0.52 -75.4 0 0 601.84 25.57
  Z"
/>
<path fill="#6c9904" d="
  M 491.85 59.68
  Q 493.37 35.38 492.00 14.00
  Q 491.80 10.83 492.63 8.53
  A 0.81 0.73 -79.4 0 1 493.32 8.00
  L 500.93 7.78
  A 0.72 0.68 79.2 0 1 501.61 8.27
  Q 502.13 9.87 502.50 13.75
  Q 505.78 47.69 500.83 81.42
  Q 499.60 89.81 495.81 96.56
  Q 493.93 99.92 491.14 99.20
  Q 489.27 98.72 487.74 96.29
  Q 485.92 93.39 484.90 90.07
  Q 480.51 75.84 477.32 61.29
  Q 475.97 55.12 474.18 49.06
  Q 473.30 46.05 471.49 43.49
  A 0.79 0.79 44.9 0 0 470.19 43.49
  Q 469.54 44.42 469.42 45.76
  Q 468.55 55.76 469.28 65.77
  Q 470.46 82.16 472.32 99.13
  A 1.68 1.65 86.9 0 1 470.68 100.99
  L 460.56 100.95
  A 0.58 0.57 86.0 0 1 459.99 100.45
  Q 457.76 85.40 456.77 70.24
  Q 455.77 54.97 455.77 50.27
  Q 455.78 38.29 458.60 26.52
  Q 460.03 20.54 464.56 17.06
  Q 466.34 15.70 468.62 15.63
  Q 470.47 15.57 472.52 16.78
  Q 476.75 19.28 479.19 23.31
  Q 485.50 33.78 488.27 45.70
  Q 489.91 52.72 491.69 59.71
  Q 491.81 60.19 491.85 59.68
  Z"
/>
<path fill="#6f9d03" d="
  M 350.83 85.62
  L 345.18 87.59
  A 0.91 0.57 -11.4 0 0 344.58 88.16
  L 343.01 99.31
  A 1.06 1.01 -89.8 0 1 342.15 100.21
  L 328.75 102.25
  A 2.24 0.72 -9.7 0 1 326.56 101.94
  Q 325.60 99.27 324.06 96.89
  Q 321.43 92.84 321.18 86.20
  A 1.18 1.18 -77.0 0 0 320.55 85.19
  Q 313.25 81.39 307.84 75.92
  Q 306.09 74.15 305.69 72.52
  A 2.45 2.44 63.2 0 1 306.50 70.05
  Q 308.77 68.16 307.94 65.81
  Q 307.21 63.75 307.04 61.63
  Q 306.94 60.46 307.46 57.42
  Q 308.20 53.15 307.12 48.98
  Q 306.53 46.70 306.82 44.94
  Q 307.56 40.55 308.72 36.24
  Q 309.38 33.79 311.99 33.75
  A 0.50 0.49 88.2 0 1 312.49 34.23
  L 312.77 39.45
  A 1.52 1.49 -67.1 0 0 313.12 40.33
  Q 314.65 42.10 315.84 40.17
  Q 316.44 39.20 317.20 38.36
  Q 330.12 24.15 337.63 9.06
  A 0.52 0.51 -63.7 0 1 338.32 8.82
  Q 340.90 10.09 343.57 10.30
  Q 343.59 10.30 348.94 10.37
  Q 355.52 10.44 362.28 8.52
  A 1.16 1.15 82.3 0 1 363.75 9.64
  Q 363.58 33.67 365.65 57.51
  Q 367.09 74.02 371.47 89.88
  A 1.74 1.72 -19.0 0 1 370.46 91.93
  L 352.65 99.35
  A 0.65 0.63 -11.0 0 1 351.75 98.76
  L 352.05 86.38
  A 0.92 0.83 -9.9 0 0 350.83 85.62
  Z
  M 316.21 50.50
  Q 315.01 49.98 315.46 48.50
  Q 315.74 46.61 314.51 47.09
  A 0.72 0.70 -13.9 0 0 314.06 47.81
  L 314.29 50.50
  Q 314.13 53.37 316.29 52.00
  Q 316.76 53.56 315.96 55.00
  L 313.41 57.45
  A 1.10 0.80 -32.7 0 0 313.07 58.32
  Q 313.18 58.81 313.70 58.79
  A 1.18 0.51 -61.1 0 0 314.41 58.24
  L 316.50 55.29
  Q 318.75 53.17 319.89 50.28
  Q 320.02 49.93 320.47 49.53
  L 323.31 46.97
  A 0.83 0.76 -34.7 0 1 324.57 47.14
  Q 327.42 53.01 330.08 58.63
  Q 330.12 58.71 331.93 61.48
  Q 333.16 63.37 332.68 65.78
  Q 332.55 66.44 332.61 67.23
  Q 332.76 69.10 331.00 68.19
  A 1.12 0.95 -84.4 0 1 330.48 67.44
  Q 330.16 65.78 329.47 64.27
  Q 329.00 63.25 327.39 61.79
  Q 325.15 59.76 324.25 56.74
  Q 323.51 54.27 322.75 56.74
  Q 322.08 58.93 321.28 61.06
  Q 320.69 62.62 319.20 65.11
  Q 317.64 67.70 316.58 70.52
  A 2.06 2.04 35.7 0 0 316.92 72.55
  Q 318.41 74.32 319.92 76.07
  Q 321.49 77.88 322.24 79.99
  Q 323.70 84.12 324.25 86.75
  Q 325.31 91.87 327.17 96.35
  Q 327.96 98.25 328.50 96.27
  Q 332.72 80.55 334.01 64.35
  Q 334.21 61.92 334.90 57.69
  Q 335.36 54.87 335.75 51.00
  Q 337.41 34.53 338.25 17.99
  Q 338.38 15.41 337.41 17.80
  Q 336.79 19.34 335.36 20.97
  Q 333.26 23.37 332.93 23.81
  Q 330.31 27.26 327.73 30.75
  Q 324.16 35.58 321.90 41.17
  Q 321.08 43.19 319.60 44.70
  Q 317.93 46.39 317.47 47.30
  Q 316.69 48.84 316.21 50.50
  Z
  M 346.28 60.94
  Q 345.99 67.94 345.83 74.94
  A 0.47 0.44 0.5 0 0 346.31 75.40
  L 352.14 75.24
  A 1.14 1.07 -0.8 0 0 353.25 74.17
  Q 353.25 69.99 353.25 65.88
  Q 353.25 63.07 353.60 57.63
  Q 354.08 50.35 353.48 43.06
  A 0.77 0.72 -84.7 0 0 352.96 42.39
  Q 351.05 41.84 350.00 43.50
  Q 348.38 46.06 347.28 49.46
  Q 346.52 51.80 346.46 55.15
  Q 346.40 58.05 346.28 60.94
  Z"
/>
<path fill="#6c9904" d="
  M 521.69 27.50
  Q 516.06 26.86 512.25 27.50
  Q 508.73 28.09 508.74 25.00
  Q 508.75 18.63 508.75 12.24
  A 0.93 0.92 -2.0 0 1 509.62 11.32
  L 551.92 8.67
  A 0.92 0.91 -6.9 0 1 552.89 9.42
  Q 554.49 18.08 554.32 26.32
  A 0.53 0.51 -90.0 0 1 553.82 26.84
  L 535.05 27.25
  A 1.33 1.29 0.2 0 0 533.74 28.51
  Q 532.95 61.26 534.27 94.83
  A 1.56 1.41 83.6 0 1 533.15 96.39
  L 522.23 98.60
  A 0.88 0.83 85.3 0 1 521.24 97.71
  L 522.18 28.07
  A 0.56 0.56 -86.1 0 0 521.69 27.50
  Z"
/>
<path fill="#6c9904" d="
  M 390.44 70.93
  Q 390.62 70.83 390.68 70.49
  Q 395.45 40.34 405.51 11.70
  A 0.82 0.82 -76.9 0 1 406.37 11.16
  Q 412.05 11.75 415.59 14.31
  Q 417.82 15.92 416.85 18.50
  Q 402.22 57.64 397.85 100.20
  A 1.28 1.20 2.3 0 1 396.61 101.28
  L 384.49 101.54
  Q 382.52 101.58 382.18 99.76
  Q 377.91 76.29 374.36 53.73
  Q 371.39 34.82 369.60 14.03
  A 1.54 1.54 -4.2 0 1 371.04 12.37
  Q 375.24 12.10 380.03 9.83
  A 1.16 1.16 -14.7 0 1 381.69 10.80
  Q 383.76 41.45 389.98 70.57
  A 0.43 0.30 72.5 0 0 390.44 70.93
  Z"
/>
<path fill="#6c9904" d="
  M 428.63 11.84
  Q 434.23 8.13 442.02 10.34
  Q 445.07 11.21 447.78 12.49
  Q 449.57 13.33 448.89 15.10
  L 443.31 29.56
  Q 442.79 30.93 442.15 29.57
  Q 440.10 25.20 435.74 25.91
  A 1.35 1.29 -72.9 0 0 434.92 26.37
  Q 430.96 30.86 433.29 35.41
  Q 434.77 38.31 437.97 39.00
  Q 440.97 39.66 444.32 38.65
  A 0.75 0.75 -5.9 0 1 445.28 39.43
  Q 444.66 46.83 442.12 53.47
  A 0.95 0.93 4.0 0 1 441.45 54.04
  Q 436.57 55.10 433.19 58.44
  Q 427.83 63.73 426.56 71.04
  Q 425.79 75.47 426.11 78.35
  Q 426.51 82.04 428.91 85.37
  Q 430.21 87.18 431.94 85.78
  Q 435.30 83.06 436.45 78.19
  Q 437.70 72.92 437.76 66.93
  A 1.18 1.13 86.6 0 1 438.74 65.78
  L 450.57 64.19
  A 1.48 1.43 86.1 0 1 452.19 65.65
  Q 452.20 72.17 451.12 78.67
  Q 450.14 84.52 447.59 89.72
  Q 444.68 95.64 440.38 98.48
  Q 434.24 102.52 427.48 99.58
  Q 421.68 97.06 418.22 91.06
  Q 415.05 85.56 414.50 78.50
  Q 413.12 60.79 423.30 47.88
  A 2.42 2.42 50.7 0 0 423.56 45.27
  Q 417.18 32.84 421.37 21.75
  Q 423.93 14.97 428.63 11.84
  Z"
/>
<path fill="#84bd00" d="
  M 166.79 88.28
  Q 169.91 87.13 169.21 83.26
  Q 167.86 75.71 162.84 70.19
  Q 162.83 70.18 158.36 66.11
  Q 153.13 61.35 150.26 55.06
  Q 147.60 49.20 147.31 41.99
  Q 146.90 31.41 151.44 21.51
  Q 155.28 13.14 164.04 10.26
  Q 166.48 9.46 168.94 10.20
  Q 175.38 12.12 178.44 17.28
  Q 180.64 20.97 181.75 27.98
  Q 183.09 36.33 180.82 44.48
  A 1.39 1.36 -81.6 0 1 179.49 45.49
  L 169.32 45.45
  A 0.54 0.53 88.9 0 1 168.79 44.93
  Q 168.61 39.85 168.75 38.50
  Q 169.34 32.98 166.30 28.42
  A 0.94 0.93 -40.6 0 0 164.83 28.31
  Q 161.70 31.69 161.31 36.50
  Q 160.54 45.80 167.12 51.57
  Q 170.10 54.17 170.13 54.20
  Q 181.17 65.34 181.25 81.25
  Q 181.28 87.32 178.59 93.39
  Q 174.43 102.79 165.32 103.46
  Q 159.53 103.88 155.53 100.54
  Q 151.46 97.13 150.00 91.00
  Q 148.00 82.61 148.99 75.81
  A 0.54 0.53 -83.7 0 1 149.56 75.35
  Q 155.61 75.74 159.25 75.25
  Q 162.66 74.79 162.06 78.26
  Q 160.97 84.60 165.90 88.15
  A 0.96 0.92 52.1 0 0 166.79 88.28
  Z"
/>
<path fill="#84bd00" d="
  M 201.48 38.93
  Q 200.76 40.04 200.61 41.51
  Q 199.85 48.83 199.89 56.19
  Q 200.00 78.25 201.86 101.63
  A 0.78 0.77 -3.1 0 1 201.10 102.47
  L 189.89 102.67
  A 1.12 1.12 -3.3 0 1 188.75 101.66
  Q 185.77 72.69 186.75 46.00
  Q 186.85 43.19 187.83 35.23
  Q 189.02 25.51 193.69 16.94
  Q 196.05 12.60 200.33 11.00
  Q 203.40 9.85 206.18 10.98
  Q 209.09 12.17 210.91 15.08
  Q 214.89 21.44 216.58 28.78
  Q 218.81 38.45 219.95 48.32
  Q 220.01 48.86 220.29 49.07
  Q 220.84 49.49 221.18 48.18
  Q 224.34 35.86 228.97 24.03
  Q 231.38 17.88 235.50 14.00
  Q 238.23 11.43 240.94 14.31
  Q 243.51 17.05 244.52 22.50
  Q 245.90 29.94 246.14 37.50
  Q 246.99 63.89 245.46 90.98
  A 1.19 1.06 -9.1 0 1 244.66 91.96
  L 233.75 95.70
  A 0.93 0.87 -16.5 0 1 232.57 95.11
  Q 232.22 93.75 232.46 91.91
  Q 234.64 75.27 235.01 58.50
  Q 235.11 53.73 233.65 49.88
  Q 233.08 48.36 232.32 49.80
  Q 229.08 55.96 227.62 62.78
  Q 224.35 78.16 222.25 93.76
  A 2.77 2.34 -7.0 0 1 220.38 95.78
  L 211.44 98.58
  A 0.73 0.68 -11.5 0 1 210.50 98.01
  Q 208.63 74.96 206.00 52.00
  Q 205.23 45.29 202.68 39.05
  Q 202.19 37.85 201.48 38.93
  Z"
/>
<path fill="#84bd00" d="
  M 109.09 74.22
  Q 108.54 74.96 108.08 75.50
  A 0.75 0.74 30.7 0 0 108.39 76.68
  Q 116.04 79.54 122.77 78.57
  A 0.74 0.71 1.8 0 1 123.60 79.42
  L 120.25 94.46
  A 0.81 0.77 13.2 0 1 119.27 95.03
  Q 110.12 92.67 103.49 87.24
  Q 102.28 86.25 102.25 87.85
  L 102.01 99.92
  A 0.87 0.69 -10.4 0 1 101.41 100.61
  L 93.17 103.19
  A 1.15 1.05 -12.8 0 1 91.70 102.36
  Q 90.73 95.04 90.79 87.25
  Q 90.85 79.41 90.70 71.57
  Q 90.56 64.29 90.72 55.92
  Q 90.96 43.83 90.50 31.74
  Q 90.46 30.77 89.78 31.33
  L 86.82 33.78
  A 1.39 1.19 -29.9 0 1 84.71 33.38
  L 80.87 20.89
  A 2.37 2.30 -27.5 0 1 81.71 18.36
  Q 86.94 14.35 92.90 12.30
  Q 99.56 10.01 105.27 11.01
  Q 113.16 12.39 118.47 19.29
  Q 122.10 24.01 123.60 29.79
  Q 126.82 42.19 122.75 53.75
  Q 118.91 64.65 110.15 73.01
  Q 109.58 73.56 109.09 74.22
  Z
  M 109.58 31.43
  Q 107.59 29.49 106.14 28.94
  A 1.47 1.47 12.0 0 0 104.15 30.23
  Q 103.29 46.25 102.62 59.49
  Q 102.38 64.39 104.25 62.09
  Q 105.14 60.99 105.48 60.65
  Q 111.32 54.67 113.28 46.74
  Q 114.41 42.14 113.69 38.73
  Q 112.81 34.58 109.58 31.43
  Z"
/>
<path fill="#6c9904" d="
  M 563.58 94.54
  Q 563.24 93.08 562.35 94.26
  Q 558.78 99.01 553.89 98.23
  Q 550.10 97.62 547.13 93.67
  Q 543.85 89.31 542.50 83.50
  Q 539.71 71.51 539.34 60.76
  Q 538.90 47.38 539.48 34.01
  A 0.56 0.52 -89.4 0 1 539.99 33.47
  L 550.97 33.18
  A 0.83 0.79 -89.6 0 1 551.78 34.04
  Q 551.35 46.87 551.38 58.75
  Q 551.40 66.79 553.25 72.50
  Q 553.84 74.32 555.42 73.88
  Q 556.34 73.63 557.13 72.57
  Q 558.88 70.20 559.50 67.50
  Q 561.38 59.24 561.88 49.74
  Q 562.86 30.76 563.00 11.88
  A 0.51 0.50 4.9 0 1 563.59 11.39
  Q 569.15 12.32 574.19 11.86
  A 0.45 0.44 -2.3 0 1 574.68 12.31
  Q 574.00 52.93 577.13 94.27
  A 2.00 1.97 82.1 0 1 575.57 96.37
  L 565.06 98.59
  A 0.53 0.53 -12.8 0 1 564.43 98.20
  L 563.58 94.54
  Z"
/>
<ellipse fill="#84bd00" cx="0.00" cy="0.00" transform="translate(136.92,20.32) rotate(98.4)" rx="8.59" ry="6.50"/>
<path fill="#84bd00" d="
  M 25.31 32.19
  A 1.37 1.32 -88.7 0 0 24.00 30.77
  L 12.70 30.68
  A 0.94 0.89 0.6 0 1 11.77 29.78
  L 11.92 15.19
  A 0.54 0.54 -1.7 0 1 12.43 14.65
  L 54.58 12.21
  A 1.38 1.38 86.2 0 1 56.04 13.49
  L 57.29 29.88
  A 0.57 0.57 87.7 0 1 56.72 30.50
  L 37.49 30.50
  A 1.25 1.25 -89.5 0 0 36.24 31.73
  Q 35.72 64.00 36.79 98.09
  A 1.41 1.40 79.9 0 1 35.84 99.46
  Q 29.83 101.51 24.50 101.73
  A 0.48 0.48 -1.1 0 1 24.00 101.25
  Q 23.89 68.18 25.31 32.19
  Z"
/>
<path fill="#84bd00" d="
  M 65.77 97.36
  Q 64.93 98.01 63.31 99.56
  Q 60.43 102.33 56.56 101.62
  Q 53.56 101.07 50.92 98.41
  Q 48.05 95.51 46.75 91.75
  Q 43.95 83.64 42.88 74.70
  Q 42.16 68.71 41.85 57.29
  Q 41.57 47.24 42.16 37.19
  A 0.56 0.53 -88.3 0 1 42.69 36.66
  L 53.78 36.53
  A 0.77 0.75 -89.3 0 1 54.53 37.32
  Q 54.41 42.25 54.16 45.99
  Q 53.26 59.46 55.31 73.69
  Q 55.89 77.70 58.97 76.62
  A 1.37 1.23 -83.1 0 0 59.68 76.00
  Q 62.99 70.02 63.75 62.00
  Q 65.88 39.55 65.21 15.58
  A 0.76 0.70 0.1 0 1 65.99 14.86
  L 76.60 15.17
  A 0.84 0.77 0.8 0 1 77.41 15.93
  Q 77.53 20.65 77.32 24.99
  Q 77.02 31.03 77.08 34.02
  Q 77.71 65.45 79.63 97.78
  A 1.67 1.59 82.2 0 1 78.40 99.49
  L 67.93 101.88
  A 0.94 0.90 78.9 0 1 66.83 101.11
  L 66.28 97.56
  A 0.32 0.32 -23.2 0 0 65.77 97.36
  Z"
/>
<path fill="#82ba00" d="
  M 263.44 24.44
  Q 268.28 17.83 275.46 18.90
  Q 279.03 19.43 281.82 21.96
  Q 284.46 24.36 286.19 27.81
  Q 289.18 33.80 290.25 39.80
  Q 293.69 58.96 288.89 77.78
  Q 286.40 87.51 281.19 92.69
  Q 275.96 97.88 269.25 96.25
  Q 263.20 94.78 259.45 88.85
  Q 255.16 82.05 253.72 74.38
  Q 252.59 68.32 252.79 59.08
  Q 253.01 49.55 255.59 40.25
  Q 257.87 32.03 263.44 24.44
  Z
  M 269.96 40.45
  Q 268.49 42.54 267.74 45.00
  Q 265.17 53.37 265.14 62.07
  Q 265.11 67.87 265.31 69.93
  Q 265.69 73.93 267.38 77.60
  Q 268.48 79.99 269.88 80.74
  Q 272.25 82.01 274.45 78.80
  Q 275.56 77.18 276.08 75.30
  Q 280.50 59.49 275.69 42.75
  Q 275.05 40.51 274.33 39.53
  Q 272.42 36.97 269.96 40.45
  Z"
/>
<path fill="#84bd00" d="
  M 140.67 61.32
  Q 140.13 77.18 141.54 93.42
  A 1.65 1.64 71.5 0 1 140.79 94.94
  L 131.60 100.78
  A 0.55 0.55 71.4 0 1 130.76 100.36
  Q 128.51 72.29 129.00 44.25
  Q 129.11 38.24 129.93 35.04
  A 0.79 0.67 0.9 0 1 130.56 34.52
  L 141.44 32.64
  A 1.14 1.07 -2.0 0 1 142.77 33.81
  Q 141.14 47.61 140.67 61.32
  Z"
/>
<path fill="#6c9904" d="
  M 315.46 48.50
  Q 315.01 49.98 316.21 50.50
  L 316.29 52.00
  Q 314.13 53.37 314.29 50.50
  Q 315.46 50.04 315.46 48.50
  Z"
/>
<path fill="#6c9904" d="
  M 616.15 121.37
  Q 618.89 120.22 621.51 121.92
  Q 623.43 123.16 624.34 125.94
  Q 625.80 130.37 625.59 135.03
  Q 625.37 139.90 625.02 141.48
  Q 624.52 143.76 623.02 145.60
  Q 621.54 147.41 619.30 147.85
  Q 615.96 148.51 613.84 146.28
  Q 611.97 144.32 611.56 140.11
  Q 611.26 137.13 611.25 132.75
  Q 611.24 129.03 612.12 126.18
  Q 613.24 122.60 616.15 121.37
  Z
  M 618.2132 142.9099
  A 8.26 3.34 89.7 0 0 621.5100 134.6325
  A 8.26 3.34 89.7 0 0 618.1268 126.3901
  A 8.26 3.34 89.7 0 0 614.8300 134.6675
  A 8.26 3.34 89.7 0 0 618.2132 142.9099
  Z"
/>
<path fill="#6c9904" d="
  M 549.74 137.32
  L 549.49 142.86
  A 0.95 0.86 -0.4 0 0 550.49 143.75
  L 556.00 143.50
  A 0.77 0.76 79.7 0 1 556.77 144.04
  Q 557.48 146.23 557.09 147.72
  A 0.70 0.63 5.9 0 1 556.44 148.20
  L 546.17 148.24
  A 0.67 0.66 89.6 0 1 545.50 147.57
  L 545.50 123.00
  A 1.12 1.04 -0.8 0 1 546.59 121.96
  L 555.58 121.68
  A 1.46 1.33 -6.9 0 1 557.01 122.70
  Q 557.91 126.59 555.35 126.35
  Q 554.27 126.25 554.15 126.25
  Q 552.58 126.25 550.45 126.25
  A 1.14 1.10 0.5 0 0 549.31 127.33
  L 549.25 131.38
  A 1.02 1.00 -4.8 0 0 550.45 132.37
  Q 551.45 132.21 552.66 132.21
  Q 554.73 132.22 554.84 132.25
  Q 556.43 132.61 555.83 135.57
  A 2.11 1.62 5.5 0 1 553.75 136.87
  L 550.31 136.73
  A 0.61 0.55 -88.0 0 0 549.74 137.32
  Z"
/>
<path fill="#6c9904" d="
  M 583.56 135.87
  Q 584.10 137.62 584.47 135.82
  L 587.20 122.55
  A 0.80 0.79 -1.2 0 1 587.79 121.94
  Q 590.09 121.41 591.79 121.77
  A 1.51 1.47 6.5 0 1 592.98 123.23
  L 592.77 146.75
  A 1.25 1.12 71.5 0 1 592.40 147.61
  Q 591.11 148.83 590.10 147.73
  Q 589.57 147.15 589.55 145.96
  Q 589.44 140.00 589.44 134.04
  Q 589.44 133.76 589.31 133.63
  Q 589.11 133.41 588.88 133.61
  Q 588.76 133.71 588.72 133.94
  Q 587.63 139.95 586.05 145.85
  Q 585.60 147.53 584.57 148.01
  Q 583.34 148.58 582.26 147.54
  Q 581.61 146.92 581.36 145.61
  Q 580.48 141.14 579.28 136.74
  Q 578.30 133.16 578.25 137.08
  Q 578.25 137.46 578.30 137.92
  Q 578.77 142.04 578.37 146.16
  Q 578.24 147.49 577.50 148.02
  Q 576.48 148.76 575.37 147.84
  A 1.20 1.02 -74.7 0 1 574.98 147.00
  Q 574.58 136.02 574.74 125.04
  Q 574.74 124.89 574.63 123.48
  Q 574.46 121.44 576.54 121.59
  Q 576.79 121.61 578.47 121.64
  Q 580.52 121.69 580.94 124.31
  Q 581.94 130.60 583.56 135.87
  Z"
/>
<path fill="#6c9904" d="
  M 488.51 122.76
  A 0.82 0.81 -78.5 0 1 489.28 122.25
  Q 493.58 122.29 497.91 122.21
  Q 500.20 122.17 500.41 122.36
  Q 501.20 123.05 500.76 125.72
  A 1.07 1.07 17.9 0 1 499.23 126.50
  Q 498.65 126.22 497.28 126.65
  A 0.74 0.67 82.3 0 0 496.82 127.32
  L 496.46 147.69
  A 0.83 0.83 77.8 0 1 495.99 148.42
  Q 492.41 150.17 492.52 145.99
  Q 492.75 137.38 492.75 128.15
  A 1.35 1.35 84.6 0 0 491.14 126.82
  Q 486.46 127.73 488.51 122.76
  Z"
/>
<path fill="#6c9904" d="
  M 521.64 138.36
  A 0.74 0.73 -80.1 0 0 520.75 138.99
  Q 520.36 142.25 520.48 145.53
  Q 520.48 145.63 520.58 146.45
  Q 520.82 148.42 518.41 148.51
  A 1.60 1.59 -1.0 0 1 516.75 146.92
  L 516.75 123.91
  Q 516.75 122.00 518.66 122.00
  Q 521.00 122.00 523.24 122.12
  Q 527.36 122.34 528.70 125.41
  Q 529.73 127.79 529.44 131.03
  Q 529.14 134.35 526.88 138.28
  A 1.34 1.29 -40.8 0 0 526.78 139.39
  Q 528.11 143.09 528.69 146.11
  Q 529.37 149.58 526.03 148.37
  A 1.16 1.09 88.0 0 1 525.38 147.72
  Q 523.86 143.84 522.91 139.77
  Q 522.63 138.59 521.64 138.36
  Z
  M 520.89 127.17
  Q 520.30 130.08 520.79 133.53
  A 0.69 0.68 0.6 0 0 521.36 134.11
  Q 523.59 134.46 524.49 133.54
  Q 525.09 132.93 525.43 130.99
  Q 526.00 127.78 522.74 126.25
  A 1.31 1.31 18.4 0 0 520.89 127.17
  Z"
/>
<path fill="#6c9904" d="
  M 466.48 130.21
  L 468.88 123.54
  A 1.35 1.29 87.5 0 1 469.50 122.83
  Q 473.40 120.81 472.82 124.38
  Q 472.67 125.31 471.92 127.02
  Q 470.74 129.72 469.88 132.53
  Q 469.19 134.77 469.78 137.00
  Q 470.71 140.49 472.21 143.80
  Q 473.21 146.00 472.89 148.33
  A 0.75 0.73 87.2 0 1 472.34 148.95
  Q 469.47 149.66 468.58 146.76
  Q 467.68 143.78 466.83 140.00
  Q 466.56 138.80 466.02 139.91
  Q 465.06 141.90 464.23 144.50
  Q 464.22 144.52 463.87 146.03
  Q 463.26 148.63 460.48 149.25
  A 0.97 0.96 89.1 0 1 459.32 148.12
  Q 460.50 142.17 462.60 137.02
  Q 463.47 134.88 462.61 132.74
  Q 460.88 128.44 459.69 124.44
  Q 458.94 121.94 462.39 122.69
  A 2.02 1.69 82.8 0 1 463.69 123.90
  L 466.10 130.23
  Q 466.29 130.73 466.48 130.21
  Z"
/>
<path fill="#6c9904" d="
  M 436.81 144.23
  L 442.25 144.07
  A 0.89 0.67 -10.9 0 1 443.00 144.44
  Q 444.12 146.54 443.16 148.73
  A 0.81 0.67 9.8 0 1 442.45 149.14
  L 432.49 149.25
  A 0.67 0.60 -0.5 0 1 431.81 148.65
  L 431.75 124.16
  A 1.52 1.44 -0.6 0 1 433.24 122.72
  L 441.77 122.59
  A 1.45 1.33 -6.4 0 1 443.19 123.62
  Q 444.16 127.91 441.25 127.25
  Q 440.02 126.97 436.67 127.38
  A 0.77 0.77 5.4 0 0 436.03 127.91
  Q 433.79 134.88 441.01 133.13
  A 0.78 0.71 -23.5 0 1 441.81 133.40
  Q 443.04 135.12 441.96 137.01
  A 0.98 0.81 11.1 0 1 441.19 137.43
  L 436.70 137.64
  A 0.71 0.71 6.7 0 0 436.04 138.16
  Q 435.25 140.95 436.15 143.71
  A 0.74 0.64 79.0 0 0 436.81 144.23
  Z"
/>
<path fill="#6c9904" d="
  M 391.70 124.17
  A 1.32 1.25 -9.2 0 1 392.62 122.96
  Q 395.73 122.00 395.55 125.22
  Q 395.49 126.21 395.49 126.29
  Q 395.37 135.15 395.65 143.05
  Q 395.73 145.39 398.01 144.85
  Q 402.77 143.73 402.07 148.15
  A 1.31 1.31 -85.3 0 1 400.78 149.25
  L 392.26 149.25
  A 0.51 0.49 0.0 0 1 391.75 148.76
  L 391.70 124.17
  Z"
/>
<path fill="#6c9904" d="
  M 365.71 124.33
  A 1.30 1.26 -84.6 0 1 366.97 123.25
  L 370.42 123.28
  A 1.34 1.25 84.3 0 1 371.65 124.36
  Q 373.17 132.35 374.49 140.20
  Q 374.50 140.27 375.16 143.27
  Q 375.76 146.01 375.39 148.82
  A 0.75 0.75 87.2 0 1 374.82 149.45
  Q 371.72 150.19 371.75 146.69
  Q 371.79 142.83 367.19 143.88
  A 1.53 1.53 -87.4 0 0 366.03 145.04
  Q 365.69 146.54 365.41 147.86
  Q 365.09 149.39 364.33 149.60
  Q 363.41 149.85 361.86 149.03
  A 0.79 0.79 19.1 0 1 361.46 148.21
  L 365.71 124.33
  Z
  M 368.57 131.74
  Q 367.34 134.86 367.53 138.18
  A 1.04 0.86 -79.5 0 0 367.97 138.98
  Q 368.89 139.52 369.41 138.63
  Q 369.69 138.14 369.68 137.19
  Q 369.64 132.90 369.50 132.00
  Q 369.21 130.11 368.57 131.74
  Z"
/>
<path fill="#6f9d03" d="
  M 288.61 124.73
  Q 288.54 122.97 290.11 123.59
  Q 291.00 123.95 291.94 123.82
  Q 300.72 122.67 301.68 130.76
  Q 302.33 136.25 301.91 141.76
  Q 301.34 149.34 294.14 149.79
  Q 294.02 149.79 291.99 149.97
  Q 290.82 150.07 289.31 149.94
  A 0.60 0.60 1.7 0 1 288.77 149.37
  Q 288.21 137.59 288.66 126.15
  Q 288.66 126.05 288.61 124.73
  Z
  M 292.54 131.17
  Q 292.05 136.36 292.22 141.58
  Q 292.23 141.65 292.16 142.92
  Q 292.04 145.17 294.91 144.68
  Q 297.04 144.32 297.57 142.22
  Q 298.86 137.07 297.69 131.56
  Q 297.03 128.51 293.43 128.65
  A 0.65 0.64 -85.4 0 0 292.83 129.17
  Q 292.63 130.16 292.54 131.17
  Z"
/>
<path fill="#6c9904" d="
  M 321.98 125.01
  A 1.58 1.58 -0.3 0 1 323.19 123.79
  Q 327.43 122.85 327.95 125.51
  Q 330.16 136.72 331.92 148.00
  A 1.17 1.05 62.8 0 1 331.69 148.89
  Q 329.86 151.04 328.58 149.13
  Q 328.14 148.48 327.95 146.73
  Q 327.54 142.89 323.77 143.75
  A 2.22 2.22 85.3 0 0 322.05 145.78
  Q 321.78 150.76 318.22 149.67
  A 0.64 0.60 -78.2 0 1 317.81 149.00
  Q 319.37 137.00 321.98 125.01
  Z
  M 324.51 139.02
  Q 326.69 139.23 326.22 137.26
  Q 325.62 134.81 325.27 132.33
  Q 324.87 129.51 324.18 131.66
  Q 324.06 132.02 324.03 132.47
  Q 323.82 135.34 323.55 137.84
  A 1.07 1.06 -84.2 0 0 324.51 139.02
  Z"
/>
<path fill="#82ba00" d="
  M 248.23 142.19
  Q 248.84 134.71 250.33 127.35
  Q 250.35 127.23 250.55 125.64
  Q 250.91 122.71 254.04 124.04
  A 0.69 0.67 -75.1 0 1 254.44 124.75
  Q 252.92 137.22 250.05 149.45
  A 0.83 0.80 89.7 0 1 249.46 150.07
  Q 247.50 150.58 245.54 150.08
  A 0.80 0.79 2.5 0 1 244.96 149.46
  L 240.39 125.06
  A 0.84 0.80 67.0 0 1 240.70 124.24
  Q 242.30 123.06 243.82 124.24
  A 1.41 1.08 -81.3 0 1 244.27 125.06
  Q 245.64 133.52 247.33 141.94
  Q 247.42 142.38 247.70 142.56
  A 0.42 0.34 -73.9 0 0 248.23 142.19
  Z"
/>
<rect fill="#82ba00" x="269.25" y="123.75" width="3.74" height="26.44" rx="1.12"/>
<path fill="#84bd00" d="
  M 203.46 146.17
  Q 205.97 146.74 206.00 144.26
  L 206.19 126.07
  A 2.23 2.11 80.5 0 1 207.56 124.03
  Q 210.43 122.95 210.29 126.40
  Q 210.25 127.48 210.25 127.60
  Q 210.25 134.63 210.25 141.66
  Q 210.25 145.57 209.45 147.20
  Q 208.51 149.13 206.60 150.21
  Q 204.91 151.18 202.74 150.94
  Q 196.75 150.30 196.75 143.75
  Q 196.75 135.38 196.75 127.02
  Q 196.75 125.34 197.37 124.65
  Q 198.33 123.59 200.01 124.55
  A 0.89 0.83 -76.3 0 1 200.44 125.31
  Q 200.55 133.78 200.53 142.25
  Q 200.53 145.49 203.46 146.17
  Z"
/>
<path fill="#84bd00" d="
  M 171.98 129.10
  L 169.73 128.36
  A 1.34 0.91 3.7 0 1 169.01 127.80
  Q 167.02 123.92 171.57 124.34
  Q 175.42 124.71 179.27 124.25
  A 1.15 1.14 -12.9 0 1 180.49 125.01
  Q 181.98 129.32 178.13 128.69
  A 1.44 1.43 -86.2 0 0 176.47 130.15
  Q 176.80 140.38 176.04 149.76
  A 1.17 1.05 75.7 0 1 175.62 150.57
  Q 174.01 151.82 173.45 150.13
  Q 173.25 149.54 173.26 148.34
  Q 173.37 139.06 172.49 129.82
  A 0.89 0.72 -86.2 0 0 171.98 129.10
  Z"
/>
<rect fill="#84bd00" x="-1.93" y="-13.24" transform="translate(81.56,138.20) rotate(-0.2)" width="3.86" height="26.48" rx="1.19"/>
<path fill="#84bd00" d="
  M 104.26 142.81
  Q 105.16 143.63 105.38 142.42
  L 108.40 125.99
  A 1.41 1.21 80.0 0 1 108.88 125.18
  Q 110.50 123.95 111.92 125.38
  A 1.00 0.89 -63.9 0 1 112.16 126.24
  L 108.03 149.69
  A 1.45 1.18 80.7 0 1 107.56 150.51
  Q 105.47 152.13 103.01 150.93
  A 1.03 0.99 8.8 0 1 102.46 150.21
  L 98.08 126.53
  A 1.57 1.49 -22.1 0 1 98.79 124.96
  Q 100.11 124.13 101.21 125.00
  Q 101.89 125.55 102.13 126.89
  Q 103.34 133.78 104.19 140.74
  Q 104.24 141.17 104.13 141.75
  Q 103.99 142.56 104.26 142.81
  Z"
/>
<path fill="#84bd00" d="
  M 132.81 135.20
  L 137.74 135.25
  A 0.75 0.69 -8.3 0 1 138.42 135.71
  Q 140.01 140.49 133.97 139.40
  A 1.55 1.54 8.1 0 0 132.17 140.75
  Q 131.80 144.01 132.40 145.96
  A 0.69 0.65 -8.2 0 0 133.07 146.43
  L 138.70 146.32
  A 0.63 0.62 82.5 0 1 139.32 146.80
  Q 139.74 148.55 139.42 150.32
  A 0.69 0.67 2.1 0 1 138.81 150.87
  Q 133.97 151.40 129.18 150.64
  A 0.61 0.60 4.0 0 1 128.67 150.06
  L 128.52 125.86
  A 1.09 1.09 89.7 0 1 129.61 124.76
  L 138.94 124.80
  A 0.67 0.66 82.6 0 1 139.58 125.30
  Q 140.01 127.06 139.42 128.79
  A 0.70 0.65 -78.5 0 1 138.75 129.27
  L 133.49 129.00
  A 1.26 1.14 8.2 0 0 132.22 129.86
  Q 131.64 132.24 132.19 134.70
  A 0.65 0.64 -5.7 0 0 132.81 135.20
  Z"
/>
<path fill="#84bd00" d="
  M 57.95 142.70
  L 61.18 126.24
  A 1.35 0.96 84.5 0 1 61.64 125.44
  Q 63.24 124.31 64.80 125.49
  A 0.81 0.77 -67.2 0 1 65.10 126.29
  L 60.66 150.98
  A 0.64 0.62 -84.4 0 1 60.05 151.50
  L 56.07 151.46
  A 0.63 0.63 -5.5 0 1 55.45 150.95
  L 50.82 126.24
  A 0.71 0.68 71.6 0 1 51.17 125.50
  Q 53.09 124.51 54.60 125.95
  A 1.63 1.23 -78.4 0 1 55.01 126.81
  L 57.38 142.67
  Q 57.63 144.32 57.95 142.70
  Z"
/>
</svg>
